<svg width="1280" height="832" viewBox="0 0 1280 832" fill="none" xmlns="http://www.w3.org/2000/svg">
<mask id="mask0_8_3" style="mask-type:alpha" maskUnits="userSpaceOnUse" x="-163" y="0" width="1664" height="832">
<path d="M1501 0H-163V832H1501V0Z" fill="white"/>
</mask>
<g mask="url(#mask0_8_3)">
<path d="M1501 0H-163V832H1501V0Z" fill="#171717"/>
<path d="M-105.176 832L726.824 0H858.488L26.488 832H-105.176Z" fill="url(#paint0_linear_8_3)"/>
<path d="M468.072 832L1300.07 0H1642.02L810.024 832H468.072Z" fill="url(#paint1_linear_8_3)"/>
<path d="M1486.86 832L654.856 0H313.528L1145.53 832H1486.86Z" fill="url(#paint2_linear_8_3)"/>
<path d="M927.752 832L95.752 0H-470.84L361.16 832H927.752Z" fill="url(#paint3_linear_8_3)"/>
<path d="M707.762 832L1501 38.7618V832H707.762Z" fill="url(#paint4_linear_8_3)"/>
<path d="M-163 832H630.238L-163 38.7618V832Z" fill="url(#paint5_linear_8_3)"/>
</g>
<defs>
<linearGradient id="paint0_linear_8_3" x1="-105.176" y1="832" x2="717.926" y2="-121.358" gradientUnits="userSpaceOnUse">
<stop stop-color="#9B9B9B" stop-opacity="0.35"/>
<stop offset="0.66" stop-color="#9B9B9B" stop-opacity="0"/>
</linearGradient>
<linearGradient id="paint1_linear_8_3" x1="468.072" y1="832" x2="1253.08" y2="-275.65" gradientUnits="userSpaceOnUse">
<stop stop-color="#9B9B9B" stop-opacity="0.35"/>
<stop offset="0.66" stop-color="#9B9B9B" stop-opacity="0"/>
</linearGradient>
<linearGradient id="paint2_linear_8_3" x1="1486.86" y1="832" x2="701.707" y2="-275.256" gradientUnits="userSpaceOnUse">
<stop stop-color="#9B9B9B" stop-opacity="0.35"/>
<stop offset="0.66" stop-color="#9B9B9B" stop-opacity="0"/>
</linearGradient>
<linearGradient id="paint3_linear_8_3" x1="927.752" y1="832" x2="196.608" y2="-397.054" gradientUnits="userSpaceOnUse">
<stop stop-color="#9B9B9B" stop-opacity="0.35"/>
<stop offset="0.66" stop-color="#9B9B9B" stop-opacity="0"/>
</linearGradient>
<linearGradient id="paint4_linear_8_3" x1="707.762" y1="832" x2="1501" y2="38.7618" gradientUnits="userSpaceOnUse">
<stop stop-color="#9B9B9B" stop-opacity="0.35"/>
<stop offset="0.66" stop-color="#9B9B9B" stop-opacity="0"/>
</linearGradient>
<linearGradient id="paint5_linear_8_3" x1="630.238" y1="832" x2="-163" y2="38.7618" gradientUnits="userSpaceOnUse">
<stop stop-color="#9B9B9B" stop-opacity="0.35"/>
<stop offset="0.66" stop-color="#9B9B9B" stop-opacity="0"/>
</linearGradient>
</defs>
</svg>
